<?xml version="1.0" encoding="UTF-8"?>
<!DOCTYPE xmeml>
<xmeml version="4">
	<project>
		<name>TEST</name>
		<children>
			<clip id="masterclip-1" explodedTracks="true">
				<uuid>6e35c97e-f0b4-47c9-8ad4-1b5d554c598f</uuid>
				<masterclipid>masterclip-1</masterclipid>
				<ismasterclip>TRUE</ismasterclip>
				<duration>850</duration>
				<rate>
					<timebase>60</timebase>
					<ntsc>TRUE</ntsc>
				</rate>
				<name>test_14s.mov</name>
				<media>
					<video>
						<track>
							<clipitem id="clipitem-1">
								<masterclipid>masterclip-1</masterclipid>
								<name>test_14s.mov</name>
								<rate>
									<timebase>60</timebase>
									<ntsc>TRUE</ntsc>
								</rate>
								<alphatype>none</alphatype>
								<pixelaspectratio>square</pixelaspectratio>
								<anamorphic>FALSE</anamorphic>
								<file id="file-1">
									<name>test_14s.mov</name>
									<pathurl>file://localhost/C%3a/Users/lenovo/Downloads/test_14s.mov</pathurl>
									<rate>
										<timebase>60</timebase>
										<ntsc>TRUE</ntsc>
									</rate>
									<duration>850</duration>
									<timecode>
										<rate>
											<timebase>60</timebase>
											<ntsc>TRUE</ntsc>
										</rate>
										<string>00;00;00;00</string>
										<frame>0</frame>
										<displayformat>DF</displayformat>
									</timecode>
									<media>
										<video>
											<samplecharacteristics>
												<rate>
													<timebase>60</timebase>
													<ntsc>TRUE</ntsc>
												</rate>
												<width>1920</width>
												<height>1080</height>
												<anamorphic>FALSE</anamorphic>
												<pixelaspectratio>square</pixelaspectratio>
												<fielddominance>upper</fielddominance>
											</samplecharacteristics>
										</video>
										<audio>
											<samplecharacteristics>
												<depth>16</depth>
												<samplerate>48000</samplerate>
											</samplecharacteristics>
											<channelcount>2</channelcount>
										</audio>
										<audio>
											<samplecharacteristics>
												<depth>16</depth>
												<samplerate>48000</samplerate>
											</samplecharacteristics>
											<channelcount>2</channelcount>
										</audio>
										<audio>
											<samplecharacteristics>
												<depth>16</depth>
												<samplerate>48000</samplerate>
											</samplecharacteristics>
											<channelcount>2</channelcount>
										</audio>
										<audio>
											<samplecharacteristics>
												<depth>16</depth>
												<samplerate>48000</samplerate>
											</samplecharacteristics>
											<channelcount>2</channelcount>
										</audio>
									</media>
								</file>
								<link>
									<linkclipref>clipitem-1</linkclipref>
									<mediatype>video</mediatype>
									<trackindex>1</trackindex>
									<clipindex>1</clipindex>
								</link>
								<link>
									<linkclipref>clipitem-2</linkclipref>
									<mediatype>audio</mediatype>
									<trackindex>1</trackindex>
									<clipindex>1</clipindex>
									<groupindex>1</groupindex>
								</link>
								<link>
									<linkclipref>clipitem-3</linkclipref>
									<mediatype>audio</mediatype>
									<trackindex>2</trackindex>
									<clipindex>1</clipindex>
									<groupindex>1</groupindex>
								</link>
								<link>
									<linkclipref>clipitem-4</linkclipref>
									<mediatype>audio</mediatype>
									<trackindex>3</trackindex>
									<clipindex>1</clipindex>
									<groupindex>1</groupindex>
								</link>
								<link>
									<linkclipref>clipitem-5</linkclipref>
									<mediatype>audio</mediatype>
									<trackindex>4</trackindex>
									<clipindex>1</clipindex>
									<groupindex>1</groupindex>
								</link>
								<link>
									<linkclipref>clipitem-6</linkclipref>
									<mediatype>audio</mediatype>
									<trackindex>5</trackindex>
									<clipindex>1</clipindex>
									<groupindex>1</groupindex>
								</link>
								<link>
									<linkclipref>clipitem-7</linkclipref>
									<mediatype>audio</mediatype>
									<trackindex>6</trackindex>
									<clipindex>1</clipindex>
									<groupindex>1</groupindex>
								</link>
								<link>
									<linkclipref>clipitem-8</linkclipref>
									<mediatype>audio</mediatype>
									<trackindex>7</trackindex>
									<clipindex>1</clipindex>
									<groupindex>1</groupindex>
								</link>
								<link>
									<linkclipref>clipitem-9</linkclipref>
									<mediatype>audio</mediatype>
									<trackindex>8</trackindex>
									<clipindex>1</clipindex>
									<groupindex>1</groupindex>
								</link>
							</clipitem>
						</track>
					</video>
					<audio>
						<track>
							<clipitem id="clipitem-2">
								<masterclipid>masterclip-1</masterclipid>
								<name>test_14s.mov</name>
								<rate>
									<timebase>60</timebase>
									<ntsc>TRUE</ntsc>
								</rate>
								<file id="file-1"/>
								<sourcetrack>
									<mediatype>audio</mediatype>
									<trackindex>1</trackindex>
								</sourcetrack>
								<link>
									<linkclipref>clipitem-1</linkclipref>
									<mediatype>video</mediatype>
									<trackindex>1</trackindex>
									<clipindex>1</clipindex>
								</link>
								<link>
									<linkclipref>clipitem-2</linkclipref>
									<mediatype>audio</mediatype>
									<trackindex>1</trackindex>
									<clipindex>1</clipindex>
									<groupindex>1</groupindex>
								</link>
								<link>
									<linkclipref>clipitem-3</linkclipref>
									<mediatype>audio</mediatype>
									<trackindex>2</trackindex>
									<clipindex>1</clipindex>
									<groupindex>1</groupindex>
								</link>
								<link>
									<linkclipref>clipitem-4</linkclipref>
									<mediatype>audio</mediatype>
									<trackindex>3</trackindex>
									<clipindex>1</clipindex>
									<groupindex>1</groupindex>
								</link>
								<link>
									<linkclipref>clipitem-5</linkclipref>
									<mediatype>audio</mediatype>
									<trackindex>4</trackindex>
									<clipindex>1</clipindex>
									<groupindex>1</groupindex>
								</link>
								<link>
									<linkclipref>clipitem-6</linkclipref>
									<mediatype>audio</mediatype>
									<trackindex>5</trackindex>
									<clipindex>1</clipindex>
									<groupindex>1</groupindex>
								</link>
								<link>
									<linkclipref>clipitem-7</linkclipref>
									<mediatype>audio</mediatype>
									<trackindex>6</trackindex>
									<clipindex>1</clipindex>
									<groupindex>1</groupindex>
								</link>
								<link>
									<linkclipref>clipitem-8</linkclipref>
									<mediatype>audio</mediatype>
									<trackindex>7</trackindex>
									<clipindex>1</clipindex>
									<groupindex>1</groupindex>
								</link>
								<link>
									<linkclipref>clipitem-9</linkclipref>
									<mediatype>audio</mediatype>
									<trackindex>8</trackindex>
									<clipindex>1</clipindex>
									<groupindex>1</groupindex>
								</link>
							</clipitem>
						</track>
						<track>
							<clipitem id="clipitem-3">
								<masterclipid>masterclip-1</masterclipid>
								<name>test_14s.mov</name>
								<rate>
									<timebase>60</timebase>
									<ntsc>TRUE</ntsc>
								</rate>
								<file id="file-1"/>
								<sourcetrack>
									<mediatype>audio</mediatype>
									<trackindex>2</trackindex>
								</sourcetrack>
								<link>
									<linkclipref>clipitem-1</linkclipref>
									<mediatype>video</mediatype>
									<trackindex>1</trackindex>
									<clipindex>1</clipindex>
								</link>
								<link>
									<linkclipref>clipitem-2</linkclipref>
									<mediatype>audio</mediatype>
									<trackindex>1</trackindex>
									<clipindex>1</clipindex>
									<groupindex>1</groupindex>
								</link>
								<link>
									<linkclipref>clipitem-3</linkclipref>
									<mediatype>audio</mediatype>
									<trackindex>2</trackindex>
									<clipindex>1</clipindex>
									<groupindex>1</groupindex>
								</link>
								<link>
									<linkclipref>clipitem-4</linkclipref>
									<mediatype>audio</mediatype>
									<trackindex>3</trackindex>
									<clipindex>1</clipindex>
									<groupindex>1</groupindex>
								</link>
								<link>
									<linkclipref>clipitem-5</linkclipref>
									<mediatype>audio</mediatype>
									<trackindex>4</trackindex>
									<clipindex>1</clipindex>
									<groupindex>1</groupindex>
								</link>
								<link>
									<linkclipref>clipitem-6</linkclipref>
									<mediatype>audio</mediatype>
									<trackindex>5</trackindex>
									<clipindex>1</clipindex>
									<groupindex>1</groupindex>
								</link>
								<link>
									<linkclipref>clipitem-7</linkclipref>
									<mediatype>audio</mediatype>
									<trackindex>6</trackindex>
									<clipindex>1</clipindex>
									<groupindex>1</groupindex>
								</link>
								<link>
									<linkclipref>clipitem-8</linkclipref>
									<mediatype>audio</mediatype>
									<trackindex>7</trackindex>
									<clipindex>1</clipindex>
									<groupindex>1</groupindex>
								</link>
								<link>
									<linkclipref>clipitem-9</linkclipref>
									<mediatype>audio</mediatype>
									<trackindex>8</trackindex>
									<clipindex>1</clipindex>
									<groupindex>1</groupindex>
								</link>
							</clipitem>
						</track>
						<track>
							<clipitem id="clipitem-4">
								<masterclipid>masterclip-1</masterclipid>
								<name>test_14s.mov</name>
								<rate>
									<timebase>60</timebase>
									<ntsc>TRUE</ntsc>
								</rate>
								<file id="file-1"/>
								<sourcetrack>
									<mediatype>audio</mediatype>
									<trackindex>3</trackindex>
								</sourcetrack>
								<link>
									<linkclipref>clipitem-1</linkclipref>
									<mediatype>video</mediatype>
									<trackindex>1</trackindex>
									<clipindex>1</clipindex>
								</link>
								<link>
									<linkclipref>clipitem-2</linkclipref>
									<mediatype>audio</mediatype>
									<trackindex>1</trackindex>
									<clipindex>1</clipindex>
									<groupindex>1</groupindex>
								</link>
								<link>
									<linkclipref>clipitem-3</linkclipref>
									<mediatype>audio</mediatype>
									<trackindex>2</trackindex>
									<clipindex>1</clipindex>
									<groupindex>1</groupindex>
								</link>
								<link>
									<linkclipref>clipitem-4</linkclipref>
									<mediatype>audio</mediatype>
									<trackindex>3</trackindex>
									<clipindex>1</clipindex>
									<groupindex>1</groupindex>
								</link>
								<link>
									<linkclipref>clipitem-5</linkclipref>
									<mediatype>audio</mediatype>
									<trackindex>4</trackindex>
									<clipindex>1</clipindex>
									<groupindex>1</groupindex>
								</link>
								<link>
									<linkclipref>clipitem-6</linkclipref>
									<mediatype>audio</mediatype>
									<trackindex>5</trackindex>
									<clipindex>1</clipindex>
									<groupindex>1</groupindex>
								</link>
								<link>
									<linkclipref>clipitem-7</linkclipref>
									<mediatype>audio</mediatype>
									<trackindex>6</trackindex>
									<clipindex>1</clipindex>
									<groupindex>1</groupindex>
								</link>
								<link>
									<linkclipref>clipitem-8</linkclipref>
									<mediatype>audio</mediatype>
									<trackindex>7</trackindex>
									<clipindex>1</clipindex>
									<groupindex>1</groupindex>
								</link>
								<link>
									<linkclipref>clipitem-9</linkclipref>
									<mediatype>audio</mediatype>
									<trackindex>8</trackindex>
									<clipindex>1</clipindex>
									<groupindex>1</groupindex>
								</link>
							</clipitem>
						</track>
						<track>
							<clipitem id="clipitem-5">
								<masterclipid>masterclip-1</masterclipid>
								<name>test_14s.mov</name>
								<rate>
									<timebase>60</timebase>
									<ntsc>TRUE</ntsc>
								</rate>
								<file id="file-1"/>
								<sourcetrack>
									<mediatype>audio</mediatype>
									<trackindex>4</trackindex>
								</sourcetrack>
								<link>
									<linkclipref>clipitem-1</linkclipref>
									<mediatype>video</mediatype>
									<trackindex>1</trackindex>
									<clipindex>1</clipindex>
								</link>
								<link>
									<linkclipref>clipitem-2</linkclipref>
									<mediatype>audio</mediatype>
									<trackindex>1</trackindex>
									<clipindex>1</clipindex>
									<groupindex>1</groupindex>
								</link>
								<link>
									<linkclipref>clipitem-3</linkclipref>
									<mediatype>audio</mediatype>
									<trackindex>2</trackindex>
									<clipindex>1</clipindex>
									<groupindex>1</groupindex>
								</link>
								<link>
									<linkclipref>clipitem-4</linkclipref>
									<mediatype>audio</mediatype>
									<trackindex>3</trackindex>
									<clipindex>1</clipindex>
									<groupindex>1</groupindex>
								</link>
								<link>
									<linkclipref>clipitem-5</linkclipref>
									<mediatype>audio</mediatype>
									<trackindex>4</trackindex>
									<clipindex>1</clipindex>
									<groupindex>1</groupindex>
								</link>
								<link>
									<linkclipref>clipitem-6</linkclipref>
									<mediatype>audio</mediatype>
									<trackindex>5</trackindex>
									<clipindex>1</clipindex>
									<groupindex>1</groupindex>
								</link>
								<link>
									<linkclipref>clipitem-7</linkclipref>
									<mediatype>audio</mediatype>
									<trackindex>6</trackindex>
									<clipindex>1</clipindex>
									<groupindex>1</groupindex>
								</link>
								<link>
									<linkclipref>clipitem-8</linkclipref>
									<mediatype>audio</mediatype>
									<trackindex>7</trackindex>
									<clipindex>1</clipindex>
									<groupindex>1</groupindex>
								</link>
								<link>
									<linkclipref>clipitem-9</linkclipref>
									<mediatype>audio</mediatype>
									<trackindex>8</trackindex>
									<clipindex>1</clipindex>
									<groupindex>1</groupindex>
								</link>
							</clipitem>
						</track>
						<track>
							<clipitem id="clipitem-6">
								<masterclipid>masterclip-1</masterclipid>
								<name>test_14s.mov</name>
								<rate>
									<timebase>60</timebase>
									<ntsc>TRUE</ntsc>
								</rate>
								<file id="file-1"/>
								<sourcetrack>
									<mediatype>audio</mediatype>
									<trackindex>5</trackindex>
								</sourcetrack>
								<link>
									<linkclipref>clipitem-1</linkclipref>
									<mediatype>video</mediatype>
									<trackindex>1</trackindex>
									<clipindex>1</clipindex>
								</link>
								<link>
									<linkclipref>clipitem-2</linkclipref>
									<mediatype>audio</mediatype>
									<trackindex>1</trackindex>
									<clipindex>1</clipindex>
									<groupindex>1</groupindex>
								</link>
								<link>
									<linkclipref>clipitem-3</linkclipref>
									<mediatype>audio</mediatype>
									<trackindex>2</trackindex>
									<clipindex>1</clipindex>
									<groupindex>1</groupindex>
								</link>
								<link>
									<linkclipref>clipitem-4</linkclipref>
									<mediatype>audio</mediatype>
									<trackindex>3</trackindex>
									<clipindex>1</clipindex>
									<groupindex>1</groupindex>
								</link>
								<link>
									<linkclipref>clipitem-5</linkclipref>
									<mediatype>audio</mediatype>
									<trackindex>4</trackindex>
									<clipindex>1</clipindex>
									<groupindex>1</groupindex>
								</link>
								<link>
									<linkclipref>clipitem-6</linkclipref>
									<mediatype>audio</mediatype>
									<trackindex>5</trackindex>
									<clipindex>1</clipindex>
									<groupindex>1</groupindex>
								</link>
								<link>
									<linkclipref>clipitem-7</linkclipref>
									<mediatype>audio</mediatype>
									<trackindex>6</trackindex>
									<clipindex>1</clipindex>
									<groupindex>1</groupindex>
								</link>
								<link>
									<linkclipref>clipitem-8</linkclipref>
									<mediatype>audio</mediatype>
									<trackindex>7</trackindex>
									<clipindex>1</clipindex>
									<groupindex>1</groupindex>
								</link>
								<link>
									<linkclipref>clipitem-9</linkclipref>
									<mediatype>audio</mediatype>
									<trackindex>8</trackindex>
									<clipindex>1</clipindex>
									<groupindex>1</groupindex>
								</link>
							</clipitem>
						</track>
						<track>
							<clipitem id="clipitem-7">
								<masterclipid>masterclip-1</masterclipid>
								<name>test_14s.mov</name>
								<rate>
									<timebase>60</timebase>
									<ntsc>TRUE</ntsc>
								</rate>
								<file id="file-1"/>
								<sourcetrack>
									<mediatype>audio</mediatype>
									<trackindex>6</trackindex>
								</sourcetrack>
								<link>
									<linkclipref>clipitem-1</linkclipref>
									<mediatype>video</mediatype>
									<trackindex>1</trackindex>
									<clipindex>1</clipindex>
								</link>
								<link>
									<linkclipref>clipitem-2</linkclipref>
									<mediatype>audio</mediatype>
									<trackindex>1</trackindex>
									<clipindex>1</clipindex>
									<groupindex>1</groupindex>
								</link>
								<link>
									<linkclipref>clipitem-3</linkclipref>
									<mediatype>audio</mediatype>
									<trackindex>2</trackindex>
									<clipindex>1</clipindex>
									<groupindex>1</groupindex>
								</link>
								<link>
									<linkclipref>clipitem-4</linkclipref>
									<mediatype>audio</mediatype>
									<trackindex>3</trackindex>
									<clipindex>1</clipindex>
									<groupindex>1</groupindex>
								</link>
								<link>
									<linkclipref>clipitem-5</linkclipref>
									<mediatype>audio</mediatype>
									<trackindex>4</trackindex>
									<clipindex>1</clipindex>
									<groupindex>1</groupindex>
								</link>
								<link>
									<linkclipref>clipitem-6</linkclipref>
									<mediatype>audio</mediatype>
									<trackindex>5</trackindex>
									<clipindex>1</clipindex>
									<groupindex>1</groupindex>
								</link>
								<link>
									<linkclipref>clipitem-7</linkclipref>
									<mediatype>audio</mediatype>
									<trackindex>6</trackindex>
									<clipindex>1</clipindex>
									<groupindex>1</groupindex>
								</link>
								<link>
									<linkclipref>clipitem-8</linkclipref>
									<mediatype>audio</mediatype>
									<trackindex>7</trackindex>
									<clipindex>1</clipindex>
									<groupindex>1</groupindex>
								</link>
								<link>
									<linkclipref>clipitem-9</linkclipref>
									<mediatype>audio</mediatype>
									<trackindex>8</trackindex>
									<clipindex>1</clipindex>
									<groupindex>1</groupindex>
								</link>
							</clipitem>
						</track>
						<track>
							<clipitem id="clipitem-8">
								<masterclipid>masterclip-1</masterclipid>
								<name>test_14s.mov</name>
								<rate>
									<timebase>60</timebase>
									<ntsc>TRUE</ntsc>
								</rate>
								<file id="file-1"/>
								<sourcetrack>
									<mediatype>audio</mediatype>
									<trackindex>7</trackindex>
								</sourcetrack>
								<link>
									<linkclipref>clipitem-1</linkclipref>
									<mediatype>video</mediatype>
									<trackindex>1</trackindex>
									<clipindex>1</clipindex>
								</link>
								<link>
									<linkclipref>clipitem-2</linkclipref>
									<mediatype>audio</mediatype>
									<trackindex>1</trackindex>
									<clipindex>1</clipindex>
									<groupindex>1</groupindex>
								</link>
								<link>
									<linkclipref>clipitem-3</linkclipref>
									<mediatype>audio</mediatype>
									<trackindex>2</trackindex>
									<clipindex>1</clipindex>
									<groupindex>1</groupindex>
								</link>
								<link>
									<linkclipref>clipitem-4</linkclipref>
									<mediatype>audio</mediatype>
									<trackindex>3</trackindex>
									<clipindex>1</clipindex>
									<groupindex>1</groupindex>
								</link>
								<link>
									<linkclipref>clipitem-5</linkclipref>
									<mediatype>audio</mediatype>
									<trackindex>4</trackindex>
									<clipindex>1</clipindex>
									<groupindex>1</groupindex>
								</link>
								<link>
									<linkclipref>clipitem-6</linkclipref>
									<mediatype>audio</mediatype>
									<trackindex>5</trackindex>
									<clipindex>1</clipindex>
									<groupindex>1</groupindex>
								</link>
								<link>
									<linkclipref>clipitem-7</linkclipref>
									<mediatype>audio</mediatype>
									<trackindex>6</trackindex>
									<clipindex>1</clipindex>
									<groupindex>1</groupindex>
								</link>
								<link>
									<linkclipref>clipitem-8</linkclipref>
									<mediatype>audio</mediatype>
									<trackindex>7</trackindex>
									<clipindex>1</clipindex>
									<groupindex>1</groupindex>
								</link>
								<link>
									<linkclipref>clipitem-9</linkclipref>
									<mediatype>audio</mediatype>
									<trackindex>8</trackindex>
									<clipindex>1</clipindex>
									<groupindex>1</groupindex>
								</link>
							</clipitem>
						</track>
						<track>
							<clipitem id="clipitem-9">
								<masterclipid>masterclip-1</masterclipid>
								<name>test_14s.mov</name>
								<rate>
									<timebase>60</timebase>
									<ntsc>TRUE</ntsc>
								</rate>
								<file id="file-1"/>
								<sourcetrack>
									<mediatype>audio</mediatype>
									<trackindex>8</trackindex>
								</sourcetrack>
								<link>
									<linkclipref>clipitem-1</linkclipref>
									<mediatype>video</mediatype>
									<trackindex>1</trackindex>
									<clipindex>1</clipindex>
								</link>
								<link>
									<linkclipref>clipitem-2</linkclipref>
									<mediatype>audio</mediatype>
									<trackindex>1</trackindex>
									<clipindex>1</clipindex>
									<groupindex>1</groupindex>
								</link>
								<link>
									<linkclipref>clipitem-3</linkclipref>
									<mediatype>audio</mediatype>
									<trackindex>2</trackindex>
									<clipindex>1</clipindex>
									<groupindex>1</groupindex>
								</link>
								<link>
									<linkclipref>clipitem-4</linkclipref>
									<mediatype>audio</mediatype>
									<trackindex>3</trackindex>
									<clipindex>1</clipindex>
									<groupindex>1</groupindex>
								</link>
								<link>
									<linkclipref>clipitem-5</linkclipref>
									<mediatype>audio</mediatype>
									<trackindex>4</trackindex>
									<clipindex>1</clipindex>
									<groupindex>1</groupindex>
								</link>
								<link>
									<linkclipref>clipitem-6</linkclipref>
									<mediatype>audio</mediatype>
									<trackindex>5</trackindex>
									<clipindex>1</clipindex>
									<groupindex>1</groupindex>
								</link>
								<link>
									<linkclipref>clipitem-7</linkclipref>
									<mediatype>audio</mediatype>
									<trackindex>6</trackindex>
									<clipindex>1</clipindex>
									<groupindex>1</groupindex>
								</link>
								<link>
									<linkclipref>clipitem-8</linkclipref>
									<mediatype>audio</mediatype>
									<trackindex>7</trackindex>
									<clipindex>1</clipindex>
									<groupindex>1</groupindex>
								</link>
								<link>
									<linkclipref>clipitem-9</linkclipref>
									<mediatype>audio</mediatype>
									<trackindex>8</trackindex>
									<clipindex>1</clipindex>
									<groupindex>1</groupindex>
								</link>
							</clipitem>
						</track>
					</audio>
				</media>
				<logginginfo>
					<description></description>
					<scene></scene>
					<shottake></shottake>
					<lognote></lognote>
					<good></good>
					<originalvideofilename></originalvideofilename>
					<originalaudiofilename></originalaudiofilename>
				</logginginfo>
				<colorinfo>
					<lut></lut>
					<lut1></lut1>
					<asc_sop></asc_sop>
					<asc_sat></asc_sat>
					<lut2></lut2>
				</colorinfo>
				<labels>
					<label2>Iris</label2>
				</labels>
			</clip>
			<clip id="masterclip-2" explodedTracks="true">
				<uuid>41c2b97a-386a-41c5-99d4-74a06c01486e</uuid>
				<masterclipid>masterclip-2</masterclipid>
				<ismasterclip>TRUE</ismasterclip>
				<duration>850</duration>
				<rate>
					<timebase>60</timebase>
					<ntsc>TRUE</ntsc>
				</rate>
				<name>test_14s.mov</name>
				<media>
					<video>
						<track>
							<clipitem id="clipitem-10">
								<masterclipid>masterclip-2</masterclipid>
								<name>test_14s.mov</name>
								<rate>
									<timebase>60</timebase>
									<ntsc>TRUE</ntsc>
								</rate>
								<alphatype>none</alphatype>
								<pixelaspectratio>square</pixelaspectratio>
								<anamorphic>FALSE</anamorphic>
								<file id="file-2">
									<name>test_14s.mov</name>
									<pathurl>file://localhost/C%3a/Users/lenovo/Downloads/test_14s.mov</pathurl>
									<rate>
										<timebase>60</timebase>
										<ntsc>TRUE</ntsc>
									</rate>
									<duration>850</duration>
									<timecode>
										<rate>
											<timebase>60</timebase>
											<ntsc>TRUE</ntsc>
										</rate>
										<string>00;00;00;00</string>
										<frame>0</frame>
										<displayformat>DF</displayformat>
									</timecode>
									<media>
										<video>
											<samplecharacteristics>
												<rate>
													<timebase>60</timebase>
													<ntsc>TRUE</ntsc>
												</rate>
												<width>1920</width>
												<height>1080</height>
												<anamorphic>FALSE</anamorphic>
												<pixelaspectratio>square</pixelaspectratio>
												<fielddominance>upper</fielddominance>
											</samplecharacteristics>
										</video>
										<audio>
											<samplecharacteristics>
												<depth>16</depth>
												<samplerate>48000</samplerate>
											</samplecharacteristics>
											<channelcount>2</channelcount>
										</audio>
										<audio>
											<samplecharacteristics>
												<depth>16</depth>
												<samplerate>48000</samplerate>
											</samplecharacteristics>
											<channelcount>2</channelcount>
										</audio>
										<audio>
											<samplecharacteristics>
												<depth>16</depth>
												<samplerate>48000</samplerate>
											</samplecharacteristics>
											<channelcount>2</channelcount>
										</audio>
										<audio>
											<samplecharacteristics>
												<depth>16</depth>
												<samplerate>48000</samplerate>
											</samplecharacteristics>
											<channelcount>2</channelcount>
										</audio>
									</media>
								</file>
								<link>
									<linkclipref>clipitem-10</linkclipref>
									<mediatype>video</mediatype>
									<trackindex>1</trackindex>
									<clipindex>1</clipindex>
								</link>
								<link>
									<linkclipref>clipitem-11</linkclipref>
									<mediatype>audio</mediatype>
									<trackindex>1</trackindex>
									<clipindex>1</clipindex>
									<groupindex>1</groupindex>
								</link>
								<link>
									<linkclipref>clipitem-12</linkclipref>
									<mediatype>audio</mediatype>
									<trackindex>2</trackindex>
									<clipindex>1</clipindex>
									<groupindex>1</groupindex>
								</link>
								<link>
									<linkclipref>clipitem-13</linkclipref>
									<mediatype>audio</mediatype>
									<trackindex>3</trackindex>
									<clipindex>1</clipindex>
									<groupindex>1</groupindex>
								</link>
								<link>
									<linkclipref>clipitem-14</linkclipref>
									<mediatype>audio</mediatype>
									<trackindex>4</trackindex>
									<clipindex>1</clipindex>
									<groupindex>1</groupindex>
								</link>
								<link>
									<linkclipref>clipitem-15</linkclipref>
									<mediatype>audio</mediatype>
									<trackindex>5</trackindex>
									<clipindex>1</clipindex>
									<groupindex>1</groupindex>
								</link>
								<link>
									<linkclipref>clipitem-16</linkclipref>
									<mediatype>audio</mediatype>
									<trackindex>6</trackindex>
									<clipindex>1</clipindex>
									<groupindex>1</groupindex>
								</link>
								<link>
									<linkclipref>clipitem-17</linkclipref>
									<mediatype>audio</mediatype>
									<trackindex>7</trackindex>
									<clipindex>1</clipindex>
									<groupindex>1</groupindex>
								</link>
								<link>
									<linkclipref>clipitem-18</linkclipref>
									<mediatype>audio</mediatype>
									<trackindex>8</trackindex>
									<clipindex>1</clipindex>
									<groupindex>1</groupindex>
								</link>
							</clipitem>
						</track>
					</video>
					<audio>
						<track>
							<clipitem id="clipitem-11">
								<masterclipid>masterclip-2</masterclipid>
								<name>test_14s.mov</name>
								<rate>
									<timebase>60</timebase>
									<ntsc>TRUE</ntsc>
								</rate>
								<file id="file-2"/>
								<sourcetrack>
									<mediatype>audio</mediatype>
									<trackindex>1</trackindex>
								</sourcetrack>
								<link>
									<linkclipref>clipitem-10</linkclipref>
									<mediatype>video</mediatype>
									<trackindex>1</trackindex>
									<clipindex>1</clipindex>
								</link>
								<link>
									<linkclipref>clipitem-11</linkclipref>
									<mediatype>audio</mediatype>
									<trackindex>1</trackindex>
									<clipindex>1</clipindex>
									<groupindex>1</groupindex>
								</link>
								<link>
									<linkclipref>clipitem-12</linkclipref>
									<mediatype>audio</mediatype>
									<trackindex>2</trackindex>
									<clipindex>1</clipindex>
									<groupindex>1</groupindex>
								</link>
								<link>
									<linkclipref>clipitem-13</linkclipref>
									<mediatype>audio</mediatype>
									<trackindex>3</trackindex>
									<clipindex>1</clipindex>
									<groupindex>1</groupindex>
								</link>
								<link>
									<linkclipref>clipitem-14</linkclipref>
									<mediatype>audio</mediatype>
									<trackindex>4</trackindex>
									<clipindex>1</clipindex>
									<groupindex>1</groupindex>
								</link>
								<link>
									<linkclipref>clipitem-15</linkclipref>
									<mediatype>audio</mediatype>
									<trackindex>5</trackindex>
									<clipindex>1</clipindex>
									<groupindex>1</groupindex>
								</link>
								<link>
									<linkclipref>clipitem-16</linkclipref>
									<mediatype>audio</mediatype>
									<trackindex>6</trackindex>
									<clipindex>1</clipindex>
									<groupindex>1</groupindex>
								</link>
								<link>
									<linkclipref>clipitem-17</linkclipref>
									<mediatype>audio</mediatype>
									<trackindex>7</trackindex>
									<clipindex>1</clipindex>
									<groupindex>1</groupindex>
								</link>
								<link>
									<linkclipref>clipitem-18</linkclipref>
									<mediatype>audio</mediatype>
									<trackindex>8</trackindex>
									<clipindex>1</clipindex>
									<groupindex>1</groupindex>
								</link>
							</clipitem>
						</track>
						<track>
							<clipitem id="clipitem-12">
								<masterclipid>masterclip-2</masterclipid>
								<name>test_14s.mov</name>
								<rate>
									<timebase>60</timebase>
									<ntsc>TRUE</ntsc>
								</rate>
								<file id="file-2"/>
								<sourcetrack>
									<mediatype>audio</mediatype>
									<trackindex>2</trackindex>
								</sourcetrack>
								<link>
									<linkclipref>clipitem-10</linkclipref>
									<mediatype>video</mediatype>
									<trackindex>1</trackindex>
									<clipindex>1</clipindex>
								</link>
								<link>
									<linkclipref>clipitem-11</linkclipref>
									<mediatype>audio</mediatype>
									<trackindex>1</trackindex>
									<clipindex>1</clipindex>
									<groupindex>1</groupindex>
								</link>
								<link>
									<linkclipref>clipitem-12</linkclipref>
									<mediatype>audio</mediatype>
									<trackindex>2</trackindex>
									<clipindex>1</clipindex>
									<groupindex>1</groupindex>
								</link>
								<link>
									<linkclipref>clipitem-13</linkclipref>
									<mediatype>audio</mediatype>
									<trackindex>3</trackindex>
									<clipindex>1</clipindex>
									<groupindex>1</groupindex>
								</link>
								<link>
									<linkclipref>clipitem-14</linkclipref>
									<mediatype>audio</mediatype>
									<trackindex>4</trackindex>
									<clipindex>1</clipindex>
									<groupindex>1</groupindex>
								</link>
								<link>
									<linkclipref>clipitem-15</linkclipref>
									<mediatype>audio</mediatype>
									<trackindex>5</trackindex>
									<clipindex>1</clipindex>
									<groupindex>1</groupindex>
								</link>
								<link>
									<linkclipref>clipitem-16</linkclipref>
									<mediatype>audio</mediatype>
									<trackindex>6</trackindex>
									<clipindex>1</clipindex>
									<groupindex>1</groupindex>
								</link>
								<link>
									<linkclipref>clipitem-17</linkclipref>
									<mediatype>audio</mediatype>
									<trackindex>7</trackindex>
									<clipindex>1</clipindex>
									<groupindex>1</groupindex>
								</link>
								<link>
									<linkclipref>clipitem-18</linkclipref>
									<mediatype>audio</mediatype>
									<trackindex>8</trackindex>
									<clipindex>1</clipindex>
									<groupindex>1</groupindex>
								</link>
							</clipitem>
						</track>
						<track>
							<clipitem id="clipitem-13">
								<masterclipid>masterclip-2</masterclipid>
								<name>test_14s.mov</name>
								<rate>
									<timebase>60</timebase>
									<ntsc>TRUE</ntsc>
								</rate>
								<file id="file-2"/>
								<sourcetrack>
									<mediatype>audio</mediatype>
									<trackindex>3</trackindex>
								</sourcetrack>
								<link>
									<linkclipref>clipitem-10</linkclipref>
									<mediatype>video</mediatype>
									<trackindex>1</trackindex>
									<clipindex>1</clipindex>
								</link>
								<link>
									<linkclipref>clipitem-11</linkclipref>
									<mediatype>audio</mediatype>
									<trackindex>1</trackindex>
									<clipindex>1</clipindex>
									<groupindex>1</groupindex>
								</link>
								<link>
									<linkclipref>clipitem-12</linkclipref>
									<mediatype>audio</mediatype>
									<trackindex>2</trackindex>
									<clipindex>1</clipindex>
									<groupindex>1</groupindex>
								</link>
								<link>
									<linkclipref>clipitem-13</linkclipref>
									<mediatype>audio</mediatype>
									<trackindex>3</trackindex>
									<clipindex>1</clipindex>
									<groupindex>1</groupindex>
								</link>
								<link>
									<linkclipref>clipitem-14</linkclipref>
									<mediatype>audio</mediatype>
									<trackindex>4</trackindex>
									<clipindex>1</clipindex>
									<groupindex>1</groupindex>
								</link>
								<link>
									<linkclipref>clipitem-15</linkclipref>
									<mediatype>audio</mediatype>
									<trackindex>5</trackindex>
									<clipindex>1</clipindex>
									<groupindex>1</groupindex>
								</link>
								<link>
									<linkclipref>clipitem-16</linkclipref>
									<mediatype>audio</mediatype>
									<trackindex>6</trackindex>
									<clipindex>1</clipindex>
									<groupindex>1</groupindex>
								</link>
								<link>
									<linkclipref>clipitem-17</linkclipref>
									<mediatype>audio</mediatype>
									<trackindex>7</trackindex>
									<clipindex>1</clipindex>
									<groupindex>1</groupindex>
								</link>
								<link>
									<linkclipref>clipitem-18</linkclipref>
									<mediatype>audio</mediatype>
									<trackindex>8</trackindex>
									<clipindex>1</clipindex>
									<groupindex>1</groupindex>
								</link>
							</clipitem>
						</track>
						<track>
							<clipitem id="clipitem-14">
								<masterclipid>masterclip-2</masterclipid>
								<name>test_14s.mov</name>
								<rate>
									<timebase>60</timebase>
									<ntsc>TRUE</ntsc>
								</rate>
								<file id="file-2"/>
								<sourcetrack>
									<mediatype>audio</mediatype>
									<trackindex>4</trackindex>
								</sourcetrack>
								<link>
									<linkclipref>clipitem-10</linkclipref>
									<mediatype>video</mediatype>
									<trackindex>1</trackindex>
									<clipindex>1</clipindex>
								</link>
								<link>
									<linkclipref>clipitem-11</linkclipref>
									<mediatype>audio</mediatype>
									<trackindex>1</trackindex>
									<clipindex>1</clipindex>
									<groupindex>1</groupindex>
								</link>
								<link>
									<linkclipref>clipitem-12</linkclipref>
									<mediatype>audio</mediatype>
									<trackindex>2</trackindex>
									<clipindex>1</clipindex>
									<groupindex>1</groupindex>
								</link>
								<link>
									<linkclipref>clipitem-13</linkclipref>
									<mediatype>audio</mediatype>
									<trackindex>3</trackindex>
									<clipindex>1</clipindex>
									<groupindex>1</groupindex>
								</link>
								<link>
									<linkclipref>clipitem-14</linkclipref>
									<mediatype>audio</mediatype>
									<trackindex>4</trackindex>
									<clipindex>1</clipindex>
									<groupindex>1</groupindex>
								</link>
								<link>
									<linkclipref>clipitem-15</linkclipref>
									<mediatype>audio</mediatype>
									<trackindex>5</trackindex>
									<clipindex>1</clipindex>
									<groupindex>1</groupindex>
								</link>
								<link>
									<linkclipref>clipitem-16</linkclipref>
									<mediatype>audio</mediatype>
									<trackindex>6</trackindex>
									<clipindex>1</clipindex>
									<groupindex>1</groupindex>
								</link>
								<link>
									<linkclipref>clipitem-17</linkclipref>
									<mediatype>audio</mediatype>
									<trackindex>7</trackindex>
									<clipindex>1</clipindex>
									<groupindex>1</groupindex>
								</link>
								<link>
									<linkclipref>clipitem-18</linkclipref>
									<mediatype>audio</mediatype>
									<trackindex>8</trackindex>
									<clipindex>1</clipindex>
									<groupindex>1</groupindex>
								</link>
							</clipitem>
						</track>
						<track>
							<clipitem id="clipitem-15">
								<masterclipid>masterclip-2</masterclipid>
								<name>test_14s.mov</name>
								<rate>
									<timebase>60</timebase>
									<ntsc>TRUE</ntsc>
								</rate>
								<file id="file-2"/>
								<sourcetrack>
									<mediatype>audio</mediatype>
									<trackindex>5</trackindex>
								</sourcetrack>
								<link>
									<linkclipref>clipitem-10</linkclipref>
									<mediatype>video</mediatype>
									<trackindex>1</trackindex>
									<clipindex>1</clipindex>
								</link>
								<link>
									<linkclipref>clipitem-11</linkclipref>
									<mediatype>audio</mediatype>
									<trackindex>1</trackindex>
									<clipindex>1</clipindex>
									<groupindex>1</groupindex>
								</link>
								<link>
									<linkclipref>clipitem-12</linkclipref>
									<mediatype>audio</mediatype>
									<trackindex>2</trackindex>
									<clipindex>1</clipindex>
									<groupindex>1</groupindex>
								</link>
								<link>
									<linkclipref>clipitem-13</linkclipref>
									<mediatype>audio</mediatype>
									<trackindex>3</trackindex>
									<clipindex>1</clipindex>
									<groupindex>1</groupindex>
								</link>
								<link>
									<linkclipref>clipitem-14</linkclipref>
									<mediatype>audio</mediatype>
									<trackindex>4</trackindex>
									<clipindex>1</clipindex>
									<groupindex>1</groupindex>
								</link>
								<link>
									<linkclipref>clipitem-15</linkclipref>
									<mediatype>audio</mediatype>
									<trackindex>5</trackindex>
									<clipindex>1</clipindex>
									<groupindex>1</groupindex>
								</link>
								<link>
									<linkclipref>clipitem-16</linkclipref>
									<mediatype>audio</mediatype>
									<trackindex>6</trackindex>
									<clipindex>1</clipindex>
									<groupindex>1</groupindex>
								</link>
								<link>
									<linkclipref>clipitem-17</linkclipref>
									<mediatype>audio</mediatype>
									<trackindex>7</trackindex>
									<clipindex>1</clipindex>
									<groupindex>1</groupindex>
								</link>
								<link>
									<linkclipref>clipitem-18</linkclipref>
									<mediatype>audio</mediatype>
									<trackindex>8</trackindex>
									<clipindex>1</clipindex>
									<groupindex>1</groupindex>
								</link>
							</clipitem>
						</track>
						<track>
							<clipitem id="clipitem-16">
								<masterclipid>masterclip-2</masterclipid>
								<name>test_14s.mov</name>
								<rate>
									<timebase>60</timebase>
									<ntsc>TRUE</ntsc>
								</rate>
								<file id="file-2"/>
								<sourcetrack>
									<mediatype>audio</mediatype>
									<trackindex>6</trackindex>
								</sourcetrack>
								<link>
									<linkclipref>clipitem-10</linkclipref>
									<mediatype>video</mediatype>
									<trackindex>1</trackindex>
									<clipindex>1</clipindex>
								</link>
								<link>
									<linkclipref>clipitem-11</linkclipref>
									<mediatype>audio</mediatype>
									<trackindex>1</trackindex>
									<clipindex>1</clipindex>
									<groupindex>1</groupindex>
								</link>
								<link>
									<linkclipref>clipitem-12</linkclipref>
									<mediatype>audio</mediatype>
									<trackindex>2</trackindex>
									<clipindex>1</clipindex>
									<groupindex>1</groupindex>
								</link>
								<link>
									<linkclipref>clipitem-13</linkclipref>
									<mediatype>audio</mediatype>
									<trackindex>3</trackindex>
									<clipindex>1</clipindex>
									<groupindex>1</groupindex>
								</link>
								<link>
									<linkclipref>clipitem-14</linkclipref>
									<mediatype>audio</mediatype>
									<trackindex>4</trackindex>
									<clipindex>1</clipindex>
									<groupindex>1</groupindex>
								</link>
								<link>
									<linkclipref>clipitem-15</linkclipref>
									<mediatype>audio</mediatype>
									<trackindex>5</trackindex>
									<clipindex>1</clipindex>
									<groupindex>1</groupindex>
								</link>
								<link>
									<linkclipref>clipitem-16</linkclipref>
									<mediatype>audio</mediatype>
									<trackindex>6</trackindex>
									<clipindex>1</clipindex>
									<groupindex>1</groupindex>
								</link>
								<link>
									<linkclipref>clipitem-17</linkclipref>
									<mediatype>audio</mediatype>
									<trackindex>7</trackindex>
									<clipindex>1</clipindex>
									<groupindex>1</groupindex>
								</link>
								<link>
									<linkclipref>clipitem-18</linkclipref>
									<mediatype>audio</mediatype>
									<trackindex>8</trackindex>
									<clipindex>1</clipindex>
									<groupindex>1</groupindex>
								</link>
							</clipitem>
						</track>
						<track>
							<clipitem id="clipitem-17">
								<masterclipid>masterclip-2</masterclipid>
								<name>test_14s.mov</name>
								<rate>
									<timebase>60</timebase>
									<ntsc>TRUE</ntsc>
								</rate>
								<file id="file-2"/>
								<sourcetrack>
									<mediatype>audio</mediatype>
									<trackindex>7</trackindex>
								</sourcetrack>
								<link>
									<linkclipref>clipitem-10</linkclipref>
									<mediatype>video</mediatype>
									<trackindex>1</trackindex>
									<clipindex>1</clipindex>
								</link>
								<link>
									<linkclipref>clipitem-11</linkclipref>
									<mediatype>audio</mediatype>
									<trackindex>1</trackindex>
									<clipindex>1</clipindex>
									<groupindex>1</groupindex>
								</link>
								<link>
									<linkclipref>clipitem-12</linkclipref>
									<mediatype>audio</mediatype>
									<trackindex>2</trackindex>
									<clipindex>1</clipindex>
									<groupindex>1</groupindex>
								</link>
								<link>
									<linkclipref>clipitem-13</linkclipref>
									<mediatype>audio</mediatype>
									<trackindex>3</trackindex>
									<clipindex>1</clipindex>
									<groupindex>1</groupindex>
								</link>
								<link>
									<linkclipref>clipitem-14</linkclipref>
									<mediatype>audio</mediatype>
									<trackindex>4</trackindex>
									<clipindex>1</clipindex>
									<groupindex>1</groupindex>
								</link>
								<link>
									<linkclipref>clipitem-15</linkclipref>
									<mediatype>audio</mediatype>
									<trackindex>5</trackindex>
									<clipindex>1</clipindex>
									<groupindex>1</groupindex>
								</link>
								<link>
									<linkclipref>clipitem-16</linkclipref>
									<mediatype>audio</mediatype>
									<trackindex>6</trackindex>
									<clipindex>1</clipindex>
									<groupindex>1</groupindex>
								</link>
								<link>
									<linkclipref>clipitem-17</linkclipref>
									<mediatype>audio</mediatype>
									<trackindex>7</trackindex>
									<clipindex>1</clipindex>
									<groupindex>1</groupindex>
								</link>
								<link>
									<linkclipref>clipitem-18</linkclipref>
									<mediatype>audio</mediatype>
									<trackindex>8</trackindex>
									<clipindex>1</clipindex>
									<groupindex>1</groupindex>
								</link>
							</clipitem>
						</track>
						<track>
							<clipitem id="clipitem-18">
								<masterclipid>masterclip-2</masterclipid>
								<name>test_14s.mov</name>
								<rate>
									<timebase>60</timebase>
									<ntsc>TRUE</ntsc>
								</rate>
								<file id="file-2"/>
								<sourcetrack>
									<mediatype>audio</mediatype>
									<trackindex>8</trackindex>
								</sourcetrack>
								<link>
									<linkclipref>clipitem-10</linkclipref>
									<mediatype>video</mediatype>
									<trackindex>1</trackindex>
									<clipindex>1</clipindex>
								</link>
								<link>
									<linkclipref>clipitem-11</linkclipref>
									<mediatype>audio</mediatype>
									<trackindex>1</trackindex>
									<clipindex>1</clipindex>
									<groupindex>1</groupindex>
								</link>
								<link>
									<linkclipref>clipitem-12</linkclipref>
									<mediatype>audio</mediatype>
									<trackindex>2</trackindex>
									<clipindex>1</clipindex>
									<groupindex>1</groupindex>
								</link>
								<link>
									<linkclipref>clipitem-13</linkclipref>
									<mediatype>audio</mediatype>
									<trackindex>3</trackindex>
									<clipindex>1</clipindex>
									<groupindex>1</groupindex>
								</link>
								<link>
									<linkclipref>clipitem-14</linkclipref>
									<mediatype>audio</mediatype>
									<trackindex>4</trackindex>
									<clipindex>1</clipindex>
									<groupindex>1</groupindex>
								</link>
								<link>
									<linkclipref>clipitem-15</linkclipref>
									<mediatype>audio</mediatype>
									<trackindex>5</trackindex>
									<clipindex>1</clipindex>
									<groupindex>1</groupindex>
								</link>
								<link>
									<linkclipref>clipitem-16</linkclipref>
									<mediatype>audio</mediatype>
									<trackindex>6</trackindex>
									<clipindex>1</clipindex>
									<groupindex>1</groupindex>
								</link>
								<link>
									<linkclipref>clipitem-17</linkclipref>
									<mediatype>audio</mediatype>
									<trackindex>7</trackindex>
									<clipindex>1</clipindex>
									<groupindex>1</groupindex>
								</link>
								<link>
									<linkclipref>clipitem-18</linkclipref>
									<mediatype>audio</mediatype>
									<trackindex>8</trackindex>
									<clipindex>1</clipindex>
									<groupindex>1</groupindex>
								</link>
							</clipitem>
						</track>
					</audio>
				</media>
				<logginginfo>
					<description></description>
					<scene></scene>
					<shottake></shottake>
					<lognote></lognote>
					<good></good>
					<originalvideofilename></originalvideofilename>
					<originalaudiofilename></originalaudiofilename>
				</logginginfo>
				<colorinfo>
					<lut></lut>
					<lut1></lut1>
					<asc_sop></asc_sop>
					<asc_sat></asc_sat>
					<lut2></lut2>
				</colorinfo>
				<labels>
					<label2>Iris</label2>
				</labels>
			</clip>
			<sequence id="sequence-1" TL.SQAudioVisibleBase="0" TL.SQVideoVisibleBase="0" TL.SQVisibleBaseTime="0" TL.SQAVDividerPosition="0.5" TL.SQHideShyTracks="0" TL.SQHeaderWidth="236" Monitor.ProgramZoomOut="3602158560000" Monitor.ProgramZoomIn="0" TL.SQTimePerPixel="0.010677746269298863" MZ.EditLine="0" MZ.Sequence.PreviewFrameSizeHeight="1080" MZ.Sequence.PreviewFrameSizeWidth="1920" MZ.Sequence.AudioTimeDisplayFormat="200" MZ.Sequence.PreviewRenderingClassID="1061109567" MZ.Sequence.PreviewRenderingPresetCodec="1634755443" MZ.Sequence.PreviewRenderingPresetPath="EncoderPresets\SequencePreview\9678af98-a7b7-4bdb-b477-7ac9c8df4a4e\QuickTime.epr" MZ.Sequence.PreviewUseMaxRenderQuality="false" MZ.Sequence.PreviewUseMaxBitDepth="false" MZ.Sequence.EditingModeGUID="9678af98-a7b7-4bdb-b477-7ac9c8df4a4e" MZ.Sequence.VideoTimeDisplayFormat="106" MZ.WorkOutPoint="3602158560000" MZ.WorkInPoint="0" explodedTracks="true">
				<uuid>92ff0a13-4f20-4d6b-bc19-fe078a7a1b2d</uuid>
				<duration>850</duration>
				<rate>
					<timebase>60</timebase>
					<ntsc>TRUE</ntsc>
				</rate>
				<name>test_14s</name>
				<media>
					<video>
						<format>
							<samplecharacteristics>
								<rate>
									<timebase>60</timebase>
									<ntsc>TRUE</ntsc>
								</rate>
								<codec>
									<name>Apple ProRes 422</name>
									<appspecificdata>
										<appname>Final Cut Pro</appname>
										<appmanufacturer>Apple Inc.</appmanufacturer>
										<appversion>7.0</appversion>
										<data>
											<qtcodec>
												<codecname>Apple ProRes 422</codecname>
												<codectypename>Apple ProRes 422</codectypename>
												<codectypecode>apcn</codectypecode>
												<codecvendorcode>appl</codecvendorcode>
												<spatialquality>1024</spatialquality>
												<temporalquality>0</temporalquality>
												<keyframerate>0</keyframerate>
												<datarate>0</datarate>
											</qtcodec>
										</data>
									</appspecificdata>
								</codec>
								<width>1920</width>
								<height>1080</height>
								<anamorphic>FALSE</anamorphic>
								<pixelaspectratio>square</pixelaspectratio>
								<fielddominance>upper</fielddominance>
								<colordepth>24</colordepth>
							</samplecharacteristics>
						</format>
						<track TL.SQTrackShy="0" TL.SQTrackExpandedHeight="25" TL.SQTrackExpanded="0" MZ.TrackTargeted="1">
							<clipitem id="clipitem-19">
								<masterclipid>masterclip-2</masterclipid>
								<name>test_14s.mov</name>
								<enabled>TRUE</enabled>
								<duration>850</duration>
								<rate>
									<timebase>60</timebase>
									<ntsc>TRUE</ntsc>
								</rate>
								<start>0</start>
								<end>850</end>
								<in>0</in>
								<out>850</out>
								<pproTicksIn>0</pproTicksIn>
								<pproTicksOut>3602158560000</pproTicksOut>
								<alphatype>none</alphatype>
								<file id="file-2"/>
								<link>
									<linkclipref>clipitem-19</linkclipref>
									<mediatype>video</mediatype>
									<trackindex>1</trackindex>
									<clipindex>1</clipindex>
								</link>
								<link>
									<linkclipref>clipitem-20</linkclipref>
									<mediatype>audio</mediatype>
									<trackindex>1</trackindex>
									<clipindex>1</clipindex>
									<groupindex>1</groupindex>
								</link>
								<link>
									<linkclipref>clipitem-21</linkclipref>
									<mediatype>audio</mediatype>
									<trackindex>2</trackindex>
									<clipindex>1</clipindex>
									<groupindex>1</groupindex>
								</link>
								<link>
									<linkclipref>clipitem-22</linkclipref>
									<mediatype>audio</mediatype>
									<trackindex>3</trackindex>
									<clipindex>1</clipindex>
									<groupindex>1</groupindex>
								</link>
								<link>
									<linkclipref>clipitem-23</linkclipref>
									<mediatype>audio</mediatype>
									<trackindex>4</trackindex>
									<clipindex>1</clipindex>
									<groupindex>1</groupindex>
								</link>
								<link>
									<linkclipref>clipitem-24</linkclipref>
									<mediatype>audio</mediatype>
									<trackindex>5</trackindex>
									<clipindex>1</clipindex>
									<groupindex>1</groupindex>
								</link>
								<link>
									<linkclipref>clipitem-25</linkclipref>
									<mediatype>audio</mediatype>
									<trackindex>6</trackindex>
									<clipindex>1</clipindex>
									<groupindex>1</groupindex>
								</link>
								<link>
									<linkclipref>clipitem-26</linkclipref>
									<mediatype>audio</mediatype>
									<trackindex>7</trackindex>
									<clipindex>1</clipindex>
									<groupindex>1</groupindex>
								</link>
								<link>
									<linkclipref>clipitem-27</linkclipref>
									<mediatype>audio</mediatype>
									<trackindex>8</trackindex>
									<clipindex>1</clipindex>
									<groupindex>1</groupindex>
								</link>
								<logginginfo>
									<description></description>
									<scene></scene>
									<shottake></shottake>
									<lognote></lognote>
									<good></good>
									<originalvideofilename></originalvideofilename>
									<originalaudiofilename></originalaudiofilename>
								</logginginfo>
								<colorinfo>
									<lut></lut>
									<lut1></lut1>
									<asc_sop></asc_sop>
									<asc_sat></asc_sat>
									<lut2></lut2>
								</colorinfo>
								<labels>
									<label2>Iris</label2>
								</labels>
							</clipitem>
							<enabled>TRUE</enabled>
							<locked>FALSE</locked>
						</track>
						<track TL.SQTrackShy="0" TL.SQTrackExpandedHeight="25" TL.SQTrackExpanded="0" MZ.TrackTargeted="0">
							<enabled>TRUE</enabled>
							<locked>FALSE</locked>
						</track>
						<track TL.SQTrackShy="0" TL.SQTrackExpandedHeight="25" TL.SQTrackExpanded="0" MZ.TrackTargeted="0">
							<enabled>TRUE</enabled>
							<locked>FALSE</locked>
						</track>
					</video>
					<audio>
						<numOutputChannels>2</numOutputChannels>
						<format>
							<samplecharacteristics>
								<depth>16</depth>
								<samplerate>48000</samplerate>
							</samplecharacteristics>
						</format>
						<outputs>
							<group>
								<index>1</index>
								<numchannels>1</numchannels>
								<downmix>0</downmix>
								<channel>
									<index>1</index>
								</channel>
							</group>
							<group>
								<index>2</index>
								<numchannels>1</numchannels>
								<downmix>0</downmix>
								<channel>
									<index>2</index>
								</channel>
							</group>
						</outputs>
						<track TL.SQTrackAudioKeyframeStyle="0" TL.SQTrackShy="0" TL.SQTrackExpandedHeight="25" TL.SQTrackExpanded="0" MZ.TrackTargeted="1" PannerCurrentValue="0.5" PannerIsInverted="true" PannerStartKeyframe="-91445760000000000,0.5,0,0,0,0,0,0" PannerName="균형" currentExplodedTrackIndex="0" totalExplodedTrackCount="2" premiereTrackType="Stereo">
							<clipitem id="clipitem-20" premiereChannelType="stereo">
								<masterclipid>masterclip-2</masterclipid>
								<name>test_14s.mov</name>
								<enabled>TRUE</enabled>
								<duration>850</duration>
								<rate>
									<timebase>60</timebase>
									<ntsc>TRUE</ntsc>
								</rate>
								<start>0</start>
								<end>850</end>
								<in>0</in>
								<out>850</out>
								<pproTicksIn>0</pproTicksIn>
								<pproTicksOut>3602158560000</pproTicksOut>
								<file id="file-2"/>
								<sourcetrack>
									<mediatype>audio</mediatype>
									<trackindex>1</trackindex>
								</sourcetrack>
								<link>
									<linkclipref>clipitem-19</linkclipref>
									<mediatype>video</mediatype>
									<trackindex>1</trackindex>
									<clipindex>1</clipindex>
								</link>
								<link>
									<linkclipref>clipitem-20</linkclipref>
									<mediatype>audio</mediatype>
									<trackindex>1</trackindex>
									<clipindex>1</clipindex>
									<groupindex>1</groupindex>
								</link>
								<link>
									<linkclipref>clipitem-21</linkclipref>
									<mediatype>audio</mediatype>
									<trackindex>2</trackindex>
									<clipindex>1</clipindex>
									<groupindex>1</groupindex>
								</link>
								<link>
									<linkclipref>clipitem-22</linkclipref>
									<mediatype>audio</mediatype>
									<trackindex>3</trackindex>
									<clipindex>1</clipindex>
									<groupindex>1</groupindex>
								</link>
								<link>
									<linkclipref>clipitem-23</linkclipref>
									<mediatype>audio</mediatype>
									<trackindex>4</trackindex>
									<clipindex>1</clipindex>
									<groupindex>1</groupindex>
								</link>
								<link>
									<linkclipref>clipitem-24</linkclipref>
									<mediatype>audio</mediatype>
									<trackindex>5</trackindex>
									<clipindex>1</clipindex>
									<groupindex>1</groupindex>
								</link>
								<link>
									<linkclipref>clipitem-25</linkclipref>
									<mediatype>audio</mediatype>
									<trackindex>6</trackindex>
									<clipindex>1</clipindex>
									<groupindex>1</groupindex>
								</link>
								<link>
									<linkclipref>clipitem-26</linkclipref>
									<mediatype>audio</mediatype>
									<trackindex>7</trackindex>
									<clipindex>1</clipindex>
									<groupindex>1</groupindex>
								</link>
								<link>
									<linkclipref>clipitem-27</linkclipref>
									<mediatype>audio</mediatype>
									<trackindex>8</trackindex>
									<clipindex>1</clipindex>
									<groupindex>1</groupindex>
								</link>
								<logginginfo>
									<description></description>
									<scene></scene>
									<shottake></shottake>
									<lognote></lognote>
									<good></good>
									<originalvideofilename></originalvideofilename>
									<originalaudiofilename></originalaudiofilename>
								</logginginfo>
								<colorinfo>
									<lut></lut>
									<lut1></lut1>
									<asc_sop></asc_sop>
									<asc_sat></asc_sat>
									<lut2></lut2>
								</colorinfo>
								<labels>
									<label2>Iris</label2>
								</labels>
							</clipitem>
							<enabled>TRUE</enabled>
							<locked>FALSE</locked>
							<outputchannelindex>1</outputchannelindex>
						</track>
						<track TL.SQTrackAudioKeyframeStyle="0" TL.SQTrackShy="0" TL.SQTrackExpandedHeight="25" TL.SQTrackExpanded="0" MZ.TrackTargeted="1" PannerCurrentValue="0.5" PannerIsInverted="true" PannerStartKeyframe="-91445760000000000,0.5,0,0,0,0,0,0" PannerName="균형" currentExplodedTrackIndex="1" totalExplodedTrackCount="2" premiereTrackType="Stereo">
							<clipitem id="clipitem-21" premiereChannelType="stereo">
								<masterclipid>masterclip-2</masterclipid>
								<name>test_14s.mov</name>
								<enabled>TRUE</enabled>
								<duration>850</duration>
								<rate>
									<timebase>60</timebase>
									<ntsc>TRUE</ntsc>
								</rate>
								<start>0</start>
								<end>850</end>
								<in>0</in>
								<out>850</out>
								<pproTicksIn>0</pproTicksIn>
								<pproTicksOut>3602158560000</pproTicksOut>
								<file id="file-2"/>
								<sourcetrack>
									<mediatype>audio</mediatype>
									<trackindex>1</trackindex>
								</sourcetrack>
								<link>
									<linkclipref>clipitem-19</linkclipref>
									<mediatype>video</mediatype>
									<trackindex>1</trackindex>
									<clipindex>1</clipindex>
								</link>
								<link>
									<linkclipref>clipitem-20</linkclipref>
									<mediatype>audio</mediatype>
									<trackindex>1</trackindex>
									<clipindex>1</clipindex>
									<groupindex>1</groupindex>
								</link>
								<link>
									<linkclipref>clipitem-21</linkclipref>
									<mediatype>audio</mediatype>
									<trackindex>2</trackindex>
									<clipindex>1</clipindex>
									<groupindex>1</groupindex>
								</link>
								<link>
									<linkclipref>clipitem-22</linkclipref>
									<mediatype>audio</mediatype>
									<trackindex>3</trackindex>
									<clipindex>1</clipindex>
									<groupindex>1</groupindex>
								</link>
								<link>
									<linkclipref>clipitem-23</linkclipref>
									<mediatype>audio</mediatype>
									<trackindex>4</trackindex>
									<clipindex>1</clipindex>
									<groupindex>1</groupindex>
								</link>
								<link>
									<linkclipref>clipitem-24</linkclipref>
									<mediatype>audio</mediatype>
									<trackindex>5</trackindex>
									<clipindex>1</clipindex>
									<groupindex>1</groupindex>
								</link>
								<link>
									<linkclipref>clipitem-25</linkclipref>
									<mediatype>audio</mediatype>
									<trackindex>6</trackindex>
									<clipindex>1</clipindex>
									<groupindex>1</groupindex>
								</link>
								<link>
									<linkclipref>clipitem-26</linkclipref>
									<mediatype>audio</mediatype>
									<trackindex>7</trackindex>
									<clipindex>1</clipindex>
									<groupindex>1</groupindex>
								</link>
								<link>
									<linkclipref>clipitem-27</linkclipref>
									<mediatype>audio</mediatype>
									<trackindex>8</trackindex>
									<clipindex>1</clipindex>
									<groupindex>1</groupindex>
								</link>
								<logginginfo>
									<description></description>
									<scene></scene>
									<shottake></shottake>
									<lognote></lognote>
									<good></good>
									<originalvideofilename></originalvideofilename>
									<originalaudiofilename></originalaudiofilename>
								</logginginfo>
								<colorinfo>
									<lut></lut>
									<lut1></lut1>
									<asc_sop></asc_sop>
									<asc_sat></asc_sat>
									<lut2></lut2>
								</colorinfo>
								<labels>
									<label2>Iris</label2>
								</labels>
							</clipitem>
							<enabled>TRUE</enabled>
							<locked>FALSE</locked>
							<outputchannelindex>2</outputchannelindex>
						</track>
						<track TL.SQTrackAudioKeyframeStyle="0" TL.SQTrackShy="0" TL.SQTrackExpandedHeight="25" TL.SQTrackExpanded="0" MZ.TrackTargeted="1" PannerCurrentValue="0.5" PannerIsInverted="true" PannerStartKeyframe="-91445760000000000,0.5,0,0,0,0,0,0" PannerName="균형" currentExplodedTrackIndex="0" totalExplodedTrackCount="2" premiereTrackType="Stereo">
							<clipitem id="clipitem-22" premiereChannelType="stereo">
								<masterclipid>masterclip-2</masterclipid>
								<name>test_14s.mov</name>
								<enabled>TRUE</enabled>
								<duration>850</duration>
								<rate>
									<timebase>60</timebase>
									<ntsc>TRUE</ntsc>
								</rate>
								<start>0</start>
								<end>850</end>
								<in>0</in>
								<out>850</out>
								<pproTicksIn>0</pproTicksIn>
								<pproTicksOut>3602158560000</pproTicksOut>
								<file id="file-2"/>
								<sourcetrack>
									<mediatype>audio</mediatype>
									<trackindex>2</trackindex>
								</sourcetrack>
								<link>
									<linkclipref>clipitem-19</linkclipref>
									<mediatype>video</mediatype>
									<trackindex>1</trackindex>
									<clipindex>1</clipindex>
								</link>
								<link>
									<linkclipref>clipitem-20</linkclipref>
									<mediatype>audio</mediatype>
									<trackindex>1</trackindex>
									<clipindex>1</clipindex>
									<groupindex>1</groupindex>
								</link>
								<link>
									<linkclipref>clipitem-21</linkclipref>
									<mediatype>audio</mediatype>
									<trackindex>2</trackindex>
									<clipindex>1</clipindex>
									<groupindex>1</groupindex>
								</link>
								<link>
									<linkclipref>clipitem-22</linkclipref>
									<mediatype>audio</mediatype>
									<trackindex>3</trackindex>
									<clipindex>1</clipindex>
									<groupindex>1</groupindex>
								</link>
								<link>
									<linkclipref>clipitem-23</linkclipref>
									<mediatype>audio</mediatype>
									<trackindex>4</trackindex>
									<clipindex>1</clipindex>
									<groupindex>1</groupindex>
								</link>
								<link>
									<linkclipref>clipitem-24</linkclipref>
									<mediatype>audio</mediatype>
									<trackindex>5</trackindex>
									<clipindex>1</clipindex>
									<groupindex>1</groupindex>
								</link>
								<link>
									<linkclipref>clipitem-25</linkclipref>
									<mediatype>audio</mediatype>
									<trackindex>6</trackindex>
									<clipindex>1</clipindex>
									<groupindex>1</groupindex>
								</link>
								<link>
									<linkclipref>clipitem-26</linkclipref>
									<mediatype>audio</mediatype>
									<trackindex>7</trackindex>
									<clipindex>1</clipindex>
									<groupindex>1</groupindex>
								</link>
								<link>
									<linkclipref>clipitem-27</linkclipref>
									<mediatype>audio</mediatype>
									<trackindex>8</trackindex>
									<clipindex>1</clipindex>
									<groupindex>1</groupindex>
								</link>
								<logginginfo>
									<description></description>
									<scene></scene>
									<shottake></shottake>
									<lognote></lognote>
									<good></good>
									<originalvideofilename></originalvideofilename>
									<originalaudiofilename></originalaudiofilename>
								</logginginfo>
								<colorinfo>
									<lut></lut>
									<lut1></lut1>
									<asc_sop></asc_sop>
									<asc_sat></asc_sat>
									<lut2></lut2>
								</colorinfo>
								<labels>
									<label2>Iris</label2>
								</labels>
							</clipitem>
							<enabled>TRUE</enabled>
							<locked>FALSE</locked>
							<outputchannelindex>1</outputchannelindex>
						</track>
						<track TL.SQTrackAudioKeyframeStyle="0" TL.SQTrackShy="0" TL.SQTrackExpandedHeight="25" TL.SQTrackExpanded="0" MZ.TrackTargeted="1" PannerCurrentValue="0.5" PannerIsInverted="true" PannerStartKeyframe="-91445760000000000,0.5,0,0,0,0,0,0" PannerName="균형" currentExplodedTrackIndex="1" totalExplodedTrackCount="2" premiereTrackType="Stereo">
							<clipitem id="clipitem-23" premiereChannelType="stereo">
								<masterclipid>masterclip-2</masterclipid>
								<name>test_14s.mov</name>
								<enabled>TRUE</enabled>
								<duration>850</duration>
								<rate>
									<timebase>60</timebase>
									<ntsc>TRUE</ntsc>
								</rate>
								<start>0</start>
								<end>850</end>
								<in>0</in>
								<out>850</out>
								<pproTicksIn>0</pproTicksIn>
								<pproTicksOut>3602158560000</pproTicksOut>
								<file id="file-2"/>
								<sourcetrack>
									<mediatype>audio</mediatype>
									<trackindex>2</trackindex>
								</sourcetrack>
								<link>
									<linkclipref>clipitem-19</linkclipref>
									<mediatype>video</mediatype>
									<trackindex>1</trackindex>
									<clipindex>1</clipindex>
								</link>
								<link>
									<linkclipref>clipitem-20</linkclipref>
									<mediatype>audio</mediatype>
									<trackindex>1</trackindex>
									<clipindex>1</clipindex>
									<groupindex>1</groupindex>
								</link>
								<link>
									<linkclipref>clipitem-21</linkclipref>
									<mediatype>audio</mediatype>
									<trackindex>2</trackindex>
									<clipindex>1</clipindex>
									<groupindex>1</groupindex>
								</link>
								<link>
									<linkclipref>clipitem-22</linkclipref>
									<mediatype>audio</mediatype>
									<trackindex>3</trackindex>
									<clipindex>1</clipindex>
									<groupindex>1</groupindex>
								</link>
								<link>
									<linkclipref>clipitem-23</linkclipref>
									<mediatype>audio</mediatype>
									<trackindex>4</trackindex>
									<clipindex>1</clipindex>
									<groupindex>1</groupindex>
								</link>
								<link>
									<linkclipref>clipitem-24</linkclipref>
									<mediatype>audio</mediatype>
									<trackindex>5</trackindex>
									<clipindex>1</clipindex>
									<groupindex>1</groupindex>
								</link>
								<link>
									<linkclipref>clipitem-25</linkclipref>
									<mediatype>audio</mediatype>
									<trackindex>6</trackindex>
									<clipindex>1</clipindex>
									<groupindex>1</groupindex>
								</link>
								<link>
									<linkclipref>clipitem-26</linkclipref>
									<mediatype>audio</mediatype>
									<trackindex>7</trackindex>
									<clipindex>1</clipindex>
									<groupindex>1</groupindex>
								</link>
								<link>
									<linkclipref>clipitem-27</linkclipref>
									<mediatype>audio</mediatype>
									<trackindex>8</trackindex>
									<clipindex>1</clipindex>
									<groupindex>1</groupindex>
								</link>
								<logginginfo>
									<description></description>
									<scene></scene>
									<shottake></shottake>
									<lognote></lognote>
									<good></good>
									<originalvideofilename></originalvideofilename>
									<originalaudiofilename></originalaudiofilename>
								</logginginfo>
								<colorinfo>
									<lut></lut>
									<lut1></lut1>
									<asc_sop></asc_sop>
									<asc_sat></asc_sat>
									<lut2></lut2>
								</colorinfo>
								<labels>
									<label2>Iris</label2>
								</labels>
							</clipitem>
							<enabled>TRUE</enabled>
							<locked>FALSE</locked>
							<outputchannelindex>2</outputchannelindex>
						</track>
						<track TL.SQTrackAudioKeyframeStyle="0" TL.SQTrackShy="0" TL.SQTrackExpandedHeight="25" TL.SQTrackExpanded="0" MZ.TrackTargeted="1" PannerCurrentValue="0.5" PannerIsInverted="true" PannerStartKeyframe="-91445760000000000,0.5,0,0,0,0,0,0" PannerName="균형" currentExplodedTrackIndex="0" totalExplodedTrackCount="2" premiereTrackType="Stereo">
							<clipitem id="clipitem-24" premiereChannelType="stereo">
								<masterclipid>masterclip-2</masterclipid>
								<name>test_14s.mov</name>
								<enabled>TRUE</enabled>
								<duration>850</duration>
								<rate>
									<timebase>60</timebase>
									<ntsc>TRUE</ntsc>
								</rate>
								<start>0</start>
								<end>850</end>
								<in>0</in>
								<out>850</out>
								<pproTicksIn>0</pproTicksIn>
								<pproTicksOut>3602158560000</pproTicksOut>
								<file id="file-2"/>
								<sourcetrack>
									<mediatype>audio</mediatype>
									<trackindex>3</trackindex>
								</sourcetrack>
								<link>
									<linkclipref>clipitem-19</linkclipref>
									<mediatype>video</mediatype>
									<trackindex>1</trackindex>
									<clipindex>1</clipindex>
								</link>
								<link>
									<linkclipref>clipitem-20</linkclipref>
									<mediatype>audio</mediatype>
									<trackindex>1</trackindex>
									<clipindex>1</clipindex>
									<groupindex>1</groupindex>
								</link>
								<link>
									<linkclipref>clipitem-21</linkclipref>
									<mediatype>audio</mediatype>
									<trackindex>2</trackindex>
									<clipindex>1</clipindex>
									<groupindex>1</groupindex>
								</link>
								<link>
									<linkclipref>clipitem-22</linkclipref>
									<mediatype>audio</mediatype>
									<trackindex>3</trackindex>
									<clipindex>1</clipindex>
									<groupindex>1</groupindex>
								</link>
								<link>
									<linkclipref>clipitem-23</linkclipref>
									<mediatype>audio</mediatype>
									<trackindex>4</trackindex>
									<clipindex>1</clipindex>
									<groupindex>1</groupindex>
								</link>
								<link>
									<linkclipref>clipitem-24</linkclipref>
									<mediatype>audio</mediatype>
									<trackindex>5</trackindex>
									<clipindex>1</clipindex>
									<groupindex>1</groupindex>
								</link>
								<link>
									<linkclipref>clipitem-25</linkclipref>
									<mediatype>audio</mediatype>
									<trackindex>6</trackindex>
									<clipindex>1</clipindex>
									<groupindex>1</groupindex>
								</link>
								<link>
									<linkclipref>clipitem-26</linkclipref>
									<mediatype>audio</mediatype>
									<trackindex>7</trackindex>
									<clipindex>1</clipindex>
									<groupindex>1</groupindex>
								</link>
								<link>
									<linkclipref>clipitem-27</linkclipref>
									<mediatype>audio</mediatype>
									<trackindex>8</trackindex>
									<clipindex>1</clipindex>
									<groupindex>1</groupindex>
								</link>
								<logginginfo>
									<description></description>
									<scene></scene>
									<shottake></shottake>
									<lognote></lognote>
									<good></good>
									<originalvideofilename></originalvideofilename>
									<originalaudiofilename></originalaudiofilename>
								</logginginfo>
								<colorinfo>
									<lut></lut>
									<lut1></lut1>
									<asc_sop></asc_sop>
									<asc_sat></asc_sat>
									<lut2></lut2>
								</colorinfo>
								<labels>
									<label2>Iris</label2>
								</labels>
							</clipitem>
							<enabled>TRUE</enabled>
							<locked>FALSE</locked>
							<outputchannelindex>1</outputchannelindex>
						</track>
						<track TL.SQTrackAudioKeyframeStyle="0" TL.SQTrackShy="0" TL.SQTrackExpandedHeight="25" TL.SQTrackExpanded="0" MZ.TrackTargeted="1" PannerCurrentValue="0.5" PannerIsInverted="true" PannerStartKeyframe="-91445760000000000,0.5,0,0,0,0,0,0" PannerName="균형" currentExplodedTrackIndex="1" totalExplodedTrackCount="2" premiereTrackType="Stereo">
							<clipitem id="clipitem-25" premiereChannelType="stereo">
								<masterclipid>masterclip-2</masterclipid>
								<name>test_14s.mov</name>
								<enabled>TRUE</enabled>
								<duration>850</duration>
								<rate>
									<timebase>60</timebase>
									<ntsc>TRUE</ntsc>
								</rate>
								<start>0</start>
								<end>850</end>
								<in>0</in>
								<out>850</out>
								<pproTicksIn>0</pproTicksIn>
								<pproTicksOut>3602158560000</pproTicksOut>
								<file id="file-2"/>
								<sourcetrack>
									<mediatype>audio</mediatype>
									<trackindex>3</trackindex>
								</sourcetrack>
								<link>
									<linkclipref>clipitem-19</linkclipref>
									<mediatype>video</mediatype>
									<trackindex>1</trackindex>
									<clipindex>1</clipindex>
								</link>
								<link>
									<linkclipref>clipitem-20</linkclipref>
									<mediatype>audio</mediatype>
									<trackindex>1</trackindex>
									<clipindex>1</clipindex>
									<groupindex>1</groupindex>
								</link>
								<link>
									<linkclipref>clipitem-21</linkclipref>
									<mediatype>audio</mediatype>
									<trackindex>2</trackindex>
									<clipindex>1</clipindex>
									<groupindex>1</groupindex>
								</link>
								<link>
									<linkclipref>clipitem-22</linkclipref>
									<mediatype>audio</mediatype>
									<trackindex>3</trackindex>
									<clipindex>1</clipindex>
									<groupindex>1</groupindex>
								</link>
								<link>
									<linkclipref>clipitem-23</linkclipref>
									<mediatype>audio</mediatype>
									<trackindex>4</trackindex>
									<clipindex>1</clipindex>
									<groupindex>1</groupindex>
								</link>
								<link>
									<linkclipref>clipitem-24</linkclipref>
									<mediatype>audio</mediatype>
									<trackindex>5</trackindex>
									<clipindex>1</clipindex>
									<groupindex>1</groupindex>
								</link>
								<link>
									<linkclipref>clipitem-25</linkclipref>
									<mediatype>audio</mediatype>
									<trackindex>6</trackindex>
									<clipindex>1</clipindex>
									<groupindex>1</groupindex>
								</link>
								<link>
									<linkclipref>clipitem-26</linkclipref>
									<mediatype>audio</mediatype>
									<trackindex>7</trackindex>
									<clipindex>1</clipindex>
									<groupindex>1</groupindex>
								</link>
								<link>
									<linkclipref>clipitem-27</linkclipref>
									<mediatype>audio</mediatype>
									<trackindex>8</trackindex>
									<clipindex>1</clipindex>
									<groupindex>1</groupindex>
								</link>
								<logginginfo>
									<description></description>
									<scene></scene>
									<shottake></shottake>
									<lognote></lognote>
									<good></good>
									<originalvideofilename></originalvideofilename>
									<originalaudiofilename></originalaudiofilename>
								</logginginfo>
								<colorinfo>
									<lut></lut>
									<lut1></lut1>
									<asc_sop></asc_sop>
									<asc_sat></asc_sat>
									<lut2></lut2>
								</colorinfo>
								<labels>
									<label2>Iris</label2>
								</labels>
							</clipitem>
							<enabled>TRUE</enabled>
							<locked>FALSE</locked>
							<outputchannelindex>2</outputchannelindex>
						</track>
						<track TL.SQTrackAudioKeyframeStyle="0" TL.SQTrackShy="0" TL.SQTrackExpandedHeight="25" TL.SQTrackExpanded="0" MZ.TrackTargeted="1" PannerCurrentValue="0.5" PannerIsInverted="true" PannerStartKeyframe="-91445760000000000,0.5,0,0,0,0,0,0" PannerName="균형" currentExplodedTrackIndex="0" totalExplodedTrackCount="2" premiereTrackType="Stereo">
							<clipitem id="clipitem-26" premiereChannelType="stereo">
								<masterclipid>masterclip-2</masterclipid>
								<name>test_14s.mov</name>
								<enabled>TRUE</enabled>
								<duration>850</duration>
								<rate>
									<timebase>60</timebase>
									<ntsc>TRUE</ntsc>
								</rate>
								<start>0</start>
								<end>850</end>
								<in>0</in>
								<out>850</out>
								<pproTicksIn>0</pproTicksIn>
								<pproTicksOut>3602158560000</pproTicksOut>
								<file id="file-2"/>
								<sourcetrack>
									<mediatype>audio</mediatype>
									<trackindex>4</trackindex>
								</sourcetrack>
								<link>
									<linkclipref>clipitem-19</linkclipref>
									<mediatype>video</mediatype>
									<trackindex>1</trackindex>
									<clipindex>1</clipindex>
								</link>
								<link>
									<linkclipref>clipitem-20</linkclipref>
									<mediatype>audio</mediatype>
									<trackindex>1</trackindex>
									<clipindex>1</clipindex>
									<groupindex>1</groupindex>
								</link>
								<link>
									<linkclipref>clipitem-21</linkclipref>
									<mediatype>audio</mediatype>
									<trackindex>2</trackindex>
									<clipindex>1</clipindex>
									<groupindex>1</groupindex>
								</link>
								<link>
									<linkclipref>clipitem-22</linkclipref>
									<mediatype>audio</mediatype>
									<trackindex>3</trackindex>
									<clipindex>1</clipindex>
									<groupindex>1</groupindex>
								</link>
								<link>
									<linkclipref>clipitem-23</linkclipref>
									<mediatype>audio</mediatype>
									<trackindex>4</trackindex>
									<clipindex>1</clipindex>
									<groupindex>1</groupindex>
								</link>
								<link>
									<linkclipref>clipitem-24</linkclipref>
									<mediatype>audio</mediatype>
									<trackindex>5</trackindex>
									<clipindex>1</clipindex>
									<groupindex>1</groupindex>
								</link>
								<link>
									<linkclipref>clipitem-25</linkclipref>
									<mediatype>audio</mediatype>
									<trackindex>6</trackindex>
									<clipindex>1</clipindex>
									<groupindex>1</groupindex>
								</link>
								<link>
									<linkclipref>clipitem-26</linkclipref>
									<mediatype>audio</mediatype>
									<trackindex>7</trackindex>
									<clipindex>1</clipindex>
									<groupindex>1</groupindex>
								</link>
								<link>
									<linkclipref>clipitem-27</linkclipref>
									<mediatype>audio</mediatype>
									<trackindex>8</trackindex>
									<clipindex>1</clipindex>
									<groupindex>1</groupindex>
								</link>
								<logginginfo>
									<description></description>
									<scene></scene>
									<shottake></shottake>
									<lognote></lognote>
									<good></good>
									<originalvideofilename></originalvideofilename>
									<originalaudiofilename></originalaudiofilename>
								</logginginfo>
								<colorinfo>
									<lut></lut>
									<lut1></lut1>
									<asc_sop></asc_sop>
									<asc_sat></asc_sat>
									<lut2></lut2>
								</colorinfo>
								<labels>
									<label2>Iris</label2>
								</labels>
							</clipitem>
							<enabled>TRUE</enabled>
							<locked>FALSE</locked>
							<outputchannelindex>1</outputchannelindex>
						</track>
						<track TL.SQTrackAudioKeyframeStyle="0" TL.SQTrackShy="0" TL.SQTrackExpandedHeight="25" TL.SQTrackExpanded="0" MZ.TrackTargeted="1" PannerCurrentValue="0.5" PannerIsInverted="true" PannerStartKeyframe="-91445760000000000,0.5,0,0,0,0,0,0" PannerName="균형" currentExplodedTrackIndex="1" totalExplodedTrackCount="2" premiereTrackType="Stereo">
							<clipitem id="clipitem-27" premiereChannelType="stereo">
								<masterclipid>masterclip-2</masterclipid>
								<name>test_14s.mov</name>
								<enabled>TRUE</enabled>
								<duration>850</duration>
								<rate>
									<timebase>60</timebase>
									<ntsc>TRUE</ntsc>
								</rate>
								<start>0</start>
								<end>850</end>
								<in>0</in>
								<out>850</out>
								<pproTicksIn>0</pproTicksIn>
								<pproTicksOut>3602158560000</pproTicksOut>
								<file id="file-2"/>
								<sourcetrack>
									<mediatype>audio</mediatype>
									<trackindex>4</trackindex>
								</sourcetrack>
								<link>
									<linkclipref>clipitem-19</linkclipref>
									<mediatype>video</mediatype>
									<trackindex>1</trackindex>
									<clipindex>1</clipindex>
								</link>
								<link>
									<linkclipref>clipitem-20</linkclipref>
									<mediatype>audio</mediatype>
									<trackindex>1</trackindex>
									<clipindex>1</clipindex>
									<groupindex>1</groupindex>
								</link>
								<link>
									<linkclipref>clipitem-21</linkclipref>
									<mediatype>audio</mediatype>
									<trackindex>2</trackindex>
									<clipindex>1</clipindex>
									<groupindex>1</groupindex>
								</link>
								<link>
									<linkclipref>clipitem-22</linkclipref>
									<mediatype>audio</mediatype>
									<trackindex>3</trackindex>
									<clipindex>1</clipindex>
									<groupindex>1</groupindex>
								</link>
								<link>
									<linkclipref>clipitem-23</linkclipref>
									<mediatype>audio</mediatype>
									<trackindex>4</trackindex>
									<clipindex>1</clipindex>
									<groupindex>1</groupindex>
								</link>
								<link>
									<linkclipref>clipitem-24</linkclipref>
									<mediatype>audio</mediatype>
									<trackindex>5</trackindex>
									<clipindex>1</clipindex>
									<groupindex>1</groupindex>
								</link>
								<link>
									<linkclipref>clipitem-25</linkclipref>
									<mediatype>audio</mediatype>
									<trackindex>6</trackindex>
									<clipindex>1</clipindex>
									<groupindex>1</groupindex>
								</link>
								<link>
									<linkclipref>clipitem-26</linkclipref>
									<mediatype>audio</mediatype>
									<trackindex>7</trackindex>
									<clipindex>1</clipindex>
									<groupindex>1</groupindex>
								</link>
								<link>
									<linkclipref>clipitem-27</linkclipref>
									<mediatype>audio</mediatype>
									<trackindex>8</trackindex>
									<clipindex>1</clipindex>
									<groupindex>1</groupindex>
								</link>
								<logginginfo>
									<description></description>
									<scene></scene>
									<shottake></shottake>
									<lognote></lognote>
									<good></good>
									<originalvideofilename></originalvideofilename>
									<originalaudiofilename></originalaudiofilename>
								</logginginfo>
								<colorinfo>
									<lut></lut>
									<lut1></lut1>
									<asc_sop></asc_sop>
									<asc_sat></asc_sat>
									<lut2></lut2>
								</colorinfo>
								<labels>
									<label2>Iris</label2>
								</labels>
							</clipitem>
							<enabled>TRUE</enabled>
							<locked>FALSE</locked>
							<outputchannelindex>2</outputchannelindex>
						</track>
					</audio>
				</media>
				<timecode>
					<rate>
						<timebase>60</timebase>
						<ntsc>TRUE</ntsc>
					</rate>
					<string>00;00;00;00</string>
					<frame>0</frame>
					<displayformat>DF</displayformat>
				</timecode>
				<labels>
					<label2>Forest</label2>
				</labels>
				<logginginfo>
					<description></description>
					<scene></scene>
					<shottake></shottake>
					<lognote></lognote>
					<good></good>
					<originalvideofilename></originalvideofilename>
					<originalaudiofilename></originalaudiofilename>
				</logginginfo>
			</sequence>
		</children>
	</project>
</xmeml>
